# xmcd CD database file
# Copyright (C) 1993-1998 Ti Kan
#
# Track frame offsets:
# 150
# 11738
# 28276
# 45639
# 60452
# 75902
# 91540
# 112503
# 121466
# 138791
# 152254
# 163429
#
# Disc length: 2433 seconds
#
# Revision: 0
# Processed by: cddbd v1.4b41PL1 Copyright (c) Steve Scherf et al.
# Submitted via: inCDius 1.1b9
#
DISCID=81097f0c
DTITLE=The Maharajas - All Night Long!
DYEAR=1900
DGENRE=
TTITLE0=Butcher's Boy
TTITLE1=You Can't Judge a Book
TTITLE2=Howlin' for my Baby
TTITLE3=Dreams to Remember
TTITLE4=The Ghost Riders in the Sky
TTITLE5=I washed my hands in muddy water
TTITLE6=Wang Dang Doodle
TTITLE7=Rocket 88
TTITLE8=Girls from Texas
TTITLE9=Soothe Me
TTITLE10=Get out of Denver
TTITLE11=Mystery Train
EXTD=
EXTT0=
EXTT1=
EXTT2=
EXTT3=
EXTT4=
EXTT5=
EXTT6=
EXTT7=
EXTT8=
EXTT9=
EXTT10=
EXTT11=
PLAYORDER=
